<?xml version="1.0" standalone="no"?>
<!DOCTYPE svg PUBLIC "-//W3C//DTD SVG 20010904//EN"
 "http://www.w3.org/TR/2001/REC-SVG-20010904/DTD/svg10.dtd">
<svg version="1.0" xmlns="http://www.w3.org/2000/svg"
 width="220.000000pt" height="210.000000pt" viewBox="0 0 220.000000 210.000000"
 preserveAspectRatio="xMidYMid meet">
<metadata>
Created by potrace 1.15, written by Peter Selinger 2001-2017
</metadata>
<g transform="translate(0.000000,210.000000) scale(0.100000,-0.100000)"
fill="#000000" stroke="none">
<path d="M0 1050 l0 -1050 1100 0 1100 0 0 1050 0 1050 -1100 0 -1100 0 0
-1050z m1250 876 c293 -48 554 -258 666 -535 49 -122 56 -170 52 -365 -4 -163
-7 -188 -31 -253 -81 -226 -232 -398 -442 -503 -143 -71 -186 -80 -401 -80
-209 0 -257 10 -406 87 -240 123 -415 366 -458 636 -16 95 -8 288 15 372 25
94 108 253 169 327 207 250 518 366 836 314z"/>
<path d="M953 1860 c-76 -14 -205 -64 -275 -106 -136 -83 -274 -243 -331 -387
-63 -158 -75 -389 -27 -542 97 -309 344 -523 662 -575 177 -28 366 9 533 106
104 60 234 192 292 295 154 273 142 603 -30 859 -106 157 -248 263 -430 322
-78 25 -112 31 -217 34 -69 1 -148 -1 -177 -6z m-193 -647 l0 -288 35 40 34
40 1 248 0 247 40 0 40 0 0 -220 c0 -121 2 -220 5 -220 4 0 19 7 35 15 16 8
79 33 139 54 128 45 191 80 220 120 27 37 51 131 51 198 l0 53 36 0 37 0 -6
-87 c-6 -105 -27 -167 -71 -220 -43 -49 -103 -82 -244 -132 -145 -52 -188 -74
-240 -125 -76 -71 -112 -170 -112 -301 l0 -65 -35 0 -35 0 0 465 0 465 35 0
35 0 0 -287z m800 -178 l0 -465 -35 0 -35 0 0 287 0 286 -35 -39 -34 -39 -1
-247 0 -248 -35 0 -35 0 0 225 0 225 -41 -20 c-22 -12 -89 -39 -149 -60 -142
-51 -184 -73 -213 -112 -35 -48 -40 -64 -46 -163 l-6 -90 -39 -3 -39 -3 6 88
c14 203 73 268 327 358 138 49 186 75 237 125 71 71 102 159 103 288 l0 72 35
0 35 0 0 -465z"/>
</g>
</svg>
