<!-- <svg width="52px" height="52px" viewBox="0 0 52 52" version="1.1" xmlns="http://www.w3.org/2000/svg" xmlns:xlink="http://www.w3.org/1999/xlink">
  <g fill="#fff">
      <path d="M26.216,1.895 C12.806,1.895 1.896,12.805 1.896,26.215 C1.896,39.626 12.806,50.536 26.216,50.536 C39.626,50.536 50.536,39.626 50.536,26.215 C50.536,12.805 39.626,1.895 26.216,1.895 M26.216,52.431 C11.76,52.431 0,40.67 0,26.215 C0,11.76 11.76,0 26.216,0 C40.671,0 52.431,11.76 52.431,26.215 C52.431,40.67 40.671,52.431 26.216,52.431" id="Fill-3"></path>
      <path d="M26.558,26.002 C31.58,24.335 35.918,22.895 35.918,15.042 L35.918,14.63 L35.918,14.173 L35.918,13 L33.889,13 L33.889,15.042 C33.889,21.431 30.718,22.483 25.918,24.077 C24.173,24.656 22.207,25.319 20.38,26.365 L20.38,13 L18.351,13 L18.351,27.772 C17.481,28.503 16.693,29.381 16.029,30.441 L16.029,13 L14,13 L14,38.565 L14,40.607 L16.029,40.607 L16.029,39.435 L16.029,38.565 C16.029,29.497 21.622,27.64 26.558,26.002" id="Fill-6"></path>
      <path d="M37.89,13 L37.89,13.266 L37.89,14.173 L37.89,14.63 L37.89,15.042 C37.89,24.15 32.285,26.011 27.338,27.652 C22.327,29.315 18,30.751 18,38.565 L18,39.435 L18,40.607 L20.03,40.607 L20.03,38.565 C20.03,32.216 23.191,31.167 27.977,29.578 C29.73,28.996 31.704,28.331 33.538,27.277 L33.538,40.607 L35.568,40.607 L35.568,25.867 C36.439,25.133 37.227,24.252 37.89,23.189 L37.89,40.607 L39.919,40.607 L39.919,15.042 L39.919,13.266 L39.919,13 L37.89,13 Z" id="Fill-8"></path>
  </g>
</svg> -->


<?xml version="1.0" standalone="no"?>
<!DOCTYPE svg PUBLIC "-//W3C//DTD SVG 20010904//EN"
 "http://www.w3.org/TR/2001/REC-SVG-20010904/DTD/svg10.dtd">
<svg version="1.0" xmlns="http://www.w3.org/2000/svg"
 width="220.000000pt" height="210.000000pt" viewBox="0 0 220.000000 210.000000"
 preserveAspectRatio="xMidYMid meet">
<metadata>
Created by potrace 1.15, written by Peter Selinger 2001-2017
</metadata>
<g transform="translate(0.000000,210.000000) scale(0.100000,-0.100000)"
fill="#000000" stroke="none">
<path d="M0 1050 l0 -1050 1100 0 1100 0 0 1050 0 1050 -1100 0 -1100 0 0
-1050z m1250 876 c293 -48 554 -258 666 -535 49 -122 56 -170 52 -365 -4 -163
-7 -188 -31 -253 -81 -226 -232 -398 -442 -503 -143 -71 -186 -80 -401 -80
-209 0 -257 10 -406 87 -240 123 -415 366 -458 636 -16 95 -8 288 15 372 25
94 108 253 169 327 207 250 518 366 836 314z"/>
<path d="M953 1860 c-76 -14 -205 -64 -275 -106 -136 -83 -274 -243 -331 -387
-63 -158 -75 -389 -27 -542 97 -309 344 -523 662 -575 177 -28 366 9 533 106
104 60 234 192 292 295 154 273 142 603 -30 859 -106 157 -248 263 -430 322
-78 25 -112 31 -217 34 -69 1 -148 -1 -177 -6z m-193 -647 l0 -288 35 40 34
40 1 248 0 247 40 0 40 0 0 -220 c0 -121 2 -220 5 -220 4 0 19 7 35 15 16 8
79 33 139 54 128 45 191 80 220 120 27 37 51 131 51 198 l0 53 36 0 37 0 -6
-87 c-6 -105 -27 -167 -71 -220 -43 -49 -103 -82 -244 -132 -145 -52 -188 -74
-240 -125 -76 -71 -112 -170 -112 -301 l0 -65 -35 0 -35 0 0 465 0 465 35 0
35 0 0 -287z m800 -178 l0 -465 -35 0 -35 0 0 287 0 286 -35 -39 -34 -39 -1
-247 0 -248 -35 0 -35 0 0 225 0 225 -41 -20 c-22 -12 -89 -39 -149 -60 -142
-51 -184 -73 -213 -112 -35 -48 -40 -64 -46 -163 l-6 -90 -39 -3 -39 -3 6 88
c14 203 73 268 327 358 138 49 186 75 237 125 71 71 102 159 103 288 l0 72 35
0 35 0 0 -465z"/>
</g>
</svg>
